<svg width="276" height="320" fill="none" xmlns="http://www.w3.org/2000/svg"><path d="M0 0h276v320H0V0z" fill="#D9DEE3"/><path d="M22 319.349s10.978-46.691 30.776-66.514c0 0 1.342-6.423 5.609-8.82 4.266-2.397 31.567-9.899 31.567-9.899s.264-2.949 9.108-5.345c0 0 9.636-20.062 13.902-23.802 0 0 50.839-13.111 58.053-11.241 7.215 1.869 3.739 8.82 3.739 8.82s23.011 15.245 36.649 17.114c13.638 1.87 35.618 9.372 40.172 41.491 4.554 32.118 1.606 58.22 1.606 58.22L22 319.349z" fill="#040F1F"/><path d="M110.469 187.832s3.62 21.476 3.62 24.28c0 2.805-1.007 17.066-1.007 17.066l10.834 15.46s15.053-10.235 19.463-13.446c4.41-3.212 13.255-17.066 18.863-21.668 5.609-4.602 7.838-8.438 7.838-8.438s-6.615-5.225-6.615-29.29l-52.996 16.036z" fill="#E7F1FB"/><path d="M163.201 208.685c4.914-4.243 6.88-7.622 6.88-7.622s-6.616-5.226-6.616-29.291l-3.26 14.885s-.311 14.454 2.996 22.028z" fill="#BFCFDD"/><path d="M114.065 212.112c0 2.805-1.007 17.066-1.007 17.066l5.01 7.143c.91-2.996.072-7.382-.6-9.755-.791-2.805 4.003-11.649 12.057-13.255 8.053-1.606 12.44-16.059 12.44-16.059l-23.921-11.721-7.575 2.301s3.596 21.476 3.596 24.28z" fill="#1573FF"/><path d="M90.6 109.501s2.396 37.991 4.29 44.415c1.893 6.423 5.896 29.05 10.163 34.707 4.266 5.656 10.426 16.107 25.143 16.395 14.717.287 30.513-12.584 33.173-20.614 2.661-8.029 3.476-28.882 3.476-28.882s1.342-12.584 1.606-15.245c.263-2.66-3.74-34.803-10.163-40.675-6.424-5.873-12.92-10.427-20.494-12.297-7.574-1.87-45.589 9.085-47.195 22.196z" fill="#E7F1FB"/><path d="M111.285 133.446a7.483 7.483 0 00-.528-.407c-2.996-2.397-5.369-4.267-4.194-13.974 1.174-9.899 9.252-15.82 9.348-15.868l.431.576c-.072.047-7.91 5.8-9.036 15.388-1.103 9.3 1.126 11.073 3.931 13.326.168.144.359.288.527.432l-.479.527zm37.559-39.644s7.742 7.741 10.379 16.37c2.637 8.629 1.366 24.64 1.366 24.64s6.256 2.924 6.496 6.424l.431-15.58-5.585-19.655-6.471-10.33-6.616-1.87zm2.66 74.903c-.815-4.339-11.817-13.135-11.936-13.231l.455-.552c.455.36 11.337 9.061 12.2 13.663l-.719.12z" fill="#BFCFDD"/><path d="M128.854 140.996s-.695 16.491 1.079 16.851c1.773.359 6.303-2.301 6.711-3.788.407-1.486-2.852-10.522-2.852-10.522s-4.842-6.735-4.938-2.541zm-23.849 14.621s11.673-1.629 13.542 0c1.87 1.63-8.748 13.615-8.748 13.615l-4.794-13.615zm45.924-28.043s.839-4.89-4.051-6.328c-4.89-1.438-14.813 2.565-16.011 4.314-1.199 1.75 2.684 5.633 2.684 5.633l.264 3.332s-1.75 2.708-2.013 4.77c-.264 2.061 2.54 1.701 2.54 1.701l16.587-13.422z" fill="#fff"/><path d="M127.176 161.586s-4.866-.48-4.722-3.212c.144-2.733 2.062-3.524 3.787-3.26 1.726.264 2.086 2.589 5.681 1.534s3.643-4.003 6.999-2.181 2.133 3.547 1.582 5.153c-.551 1.606-1.822 2.469-6.184 2.062-4.362-.408-7.143-.096-7.143-.096z" fill="#fff"/><path d="M112.459 172.875l-.719-.072c.312-2.612 2.157-6.184 5.513-10.618a75.853 75.853 0 014.938-5.849l.527.504c-.12.096-9.588 10.067-10.259 16.035z" fill="#BFCFDD"/><path d="M149.443 92.555c-3.667-2.421-7.502-4.243-11.649-5.273-7.598-1.87-45.589 9.108-47.195 22.195 0 0 2.397 37.991 4.29 44.414 1.894 6.424 5.897 29.051 10.164 34.731.647.863 1.342 1.822 2.085 2.853 1.75-8.389 3.739-19.918 2.373-23.514-2.229-5.896-4.458-11.649-6.064-18.048-1.606-6.4 0-13.495 0-13.495l4.003-4.434c-7.647-2.685-1.582-25.815 3.02-27.421 4.602-1.606 11.025 2.805 15.747-1.606 4.722-4.41 22.627-9.132 22.627-9.132l.599-1.27z" fill="#BFCFDD"/><path d="M103.735 102.286s-7.143 9.899-7.455 12.416c-.311 2.517 1.678 25.695 1.678 25.695s-3.523 7.718-2.804 11.625l-2.805-20.446v-28.091l11.386-1.199z" fill="#304D60"/><path d="M152.272 91.165s.79-5.897-3.62-8.15-24.352-7.766-39.74 0c-15.389 7.766-19.535 12.967-20.47 21.548-.935 8.581 1.462 37.991 1.462 37.991l5.225 9.492s-1.75-35.594-1.198-38.662c.551-3.068 12.296-13.375 12.296-13.375l-.527 2.277 20.733-4.554-.264 1.75s8.03-8.701 14.573-7.215c6.544 1.486 9.133 1.318 11.53-1.102z" fill="#1573FF"/><path d="M148.844 93.801s.096-3.308 4.099-4.027c4.003-.719 6.424.528 6.424.528v1.366s7.143 4.602 8.125 12.2c.983 7.599 3.835 24.449 4.003 27.565a21.697 21.697 0 01-.455 5.704s-2.421 1.487-2.589 3.116c-.168 1.63-1.079 5.777-1.079 5.777s-.934-15.939-2.133-19.175c-1.198-3.236-2.54-14.046-4.146-18.049-1.606-4.003-5.274-10.93-8.773-12.968l-3.476-2.037z" fill="#1573FF"/><path d="M168.067 135.675s3.883-6.951 6.831-5.752c2.949 1.198 5.609 7.358 5.489 10.426-.119 3.068-6.16 15.125-6.951 17.929-.791 2.804-4.146 5.896-6.016 5.896s.647-28.499.647-28.499z" fill="#E7F1FB"/><path d="M94.482 147.971s-2.013-7.215-3.739-8.557c-1.726-1.342-3.62-.935-3.883.671-.264 1.606-.264 7.215.935 10.427 1.198 3.211 4.937 16.73 7.358 17.928 2.421 1.199 5.345.672 5.345.672l-6.016-21.141z" fill="#BFCFDD"/><path d="M119.77 131.601s1.726 4.266 1.198 4.793c-.527.528-15.795-.143-17.521 0-1.726.144-5.489 4.027-5.489 4.027s3.739-7.358 5.753-8.029c2.013-.672 16.059-.791 16.059-.791z" fill="#1573FF"/><path d="M167.3 144.688s-2.037 8.437-2.037 10.306c0 1.87-.144 12.033-.527 13.519-.384 1.486-4.818-2.541-6.424 3.475-1.606 6.016-5.897 6.016-6.688 9.348-.79 3.332-.671 6.831-4.554 7.359-3.883.527-4.721-4.962-8.772-3.62-4.051 1.343-8.078-2.948-13.159.935-5.082 3.883-7.359 6.4-9.516 3.955-2.157-2.445-3.332-9.827-4.554-11.841-1.222-2.013-9.803-6.328-10.618-9.539-.815-3.212-3.691-15.197-5.106-16.683 0 0 2.277 19.271 3.404 22.747 1.127 3.475 4.626 13.998 5.968 14.884 1.342.887 3.308 2.134 3.931 5.178.623 3.044 2.133 5.537 5.082 7.574 2.948 2.037 5.273 4.29 7.142 3.308 0 0 2.229 2.588 8.03 2.588 5.8 0 15.867-2.061 18.096-4.29 2.23-2.229 2.325-1.151 3.74-2.229 1.414-1.079 5.536-6.52 7.047-6.879 1.51-.36 5.968-7.862 6.519-10.595.551-2.732 4.195-10.067 4.147-11.241-.048-1.175-1.295-3.571-1.031-6.52.264-2.948-.12-21.739-.12-21.739z" fill="#9FB1BF"/><path d="M157.808 194.807c1.51-.36 5.968-7.838 6.52-10.619.551-2.78 4.194-10.067 4.146-11.241-.024-.48-.239-1.199-.503-2.085-.935-1.223-3.787 4.074-6.927 4.721-3.14.648-2.589 11.314-5.801 12.728-3.211 1.414-9.084 11.937-15.004 11.337-5.921-.599-7.311 3.212-10.666 1.199-3.356-2.014-8.845.671-13.974-2.541-5.13-3.212-5.393-8.101-8.509-10.067-3.116-1.965-9.396-19.127-9.396-19.127v.024c.407 2.54.79 4.602 1.102 5.537 1.15 3.475 4.626 13.997 5.969 14.884 1.342.887 3.307 2.134 3.931 5.178.623 3.044 2.133 5.536 5.081 7.574 2.948 2.037 5.273 4.29 7.143 3.308 0 0 2.229 2.588 8.029 2.588 5.801 0 15.868-2.061 18.097-4.29 2.229-2.229 2.325-1.151 3.739-2.229 1.414-1.079 5.513-6.52 7.023-6.879z" fill="#304D60"/><path d="M128.135 177.358s-1.678 3.499-1.078 4.913c.599 1.414 3.643 2.757 5.297 4.075s1.294-2.205 3.835-3.619c2.541-1.415 1.15-5.873-.767-6.4-1.918-.527-6.664-.479-7.287 1.031z" fill="#304D60"/><path d="M117.253 172.252s1.582 2.109 5.201 2.924c3.62.815 8.366.072 12.297.407 6.112.504 13.638-5.416 13.638-5.416l-15.748.239-11.457.551-3.931 1.295z" fill="#9FB1BF"/><path d="M105.005 145.335s-1.558-2.349-1.558-8.941h17.521s3.356 4.578 3.883 6.232c.527 1.654-1.606 11.817-2.397 13.95-.791 2.133-.455 5.633 4.722 4.986 0 0-5.297-.552-4.123-4.674.528-1.87 2.421-1.415 4.123-1.678 1.702-.264-.623-11.362 0-13.303.623-1.942-6.208-5.537-6.208-5.537l.264 8.054-16.227.911z" fill="#BFCFDD"/><path d="M105.005 145.335s5.081-4.818 9.899-3.668c4.818 1.151 6.328 2.757 6.328 2.757s-3.835 1.965-9.18 1.773c-5.345-.191-7.047-.862-7.047-.862z" fill="#fff"/><path d="M116.102 144.016c0-.839-.311-1.63-.886-2.253l-.312-.072c-1.654-.383-3.332-.096-4.842.48a3.276 3.276 0 00.216 3.978c.527.024 1.127.072 1.75.072a22.262 22.262 0 003.331-.167c.504-.552.743-1.295.743-2.038z" fill="#1573FF"/><path d="M112.818 145.119a1.247 1.247 0 100-2.493 1.247 1.247 0 000 2.493z" fill="#040F1F"/><path d="M121.232 144.448s2.924-.815 3.356 2.349c.24 1.702.575.216.839-1.486.287-1.918-.24-3.859-1.486-5.321l-2.972-3.572.095 4.579.168 3.451zm48.106-5.01s4.362-8.029 5.968-7.862c1.606.168 4.985 4.986 4.29 8.653-.695 3.667-2.684 9.276-2.684 9.276s-.264-16.419-3.212-13.902c-2.948 2.517-4.362 3.835-4.362 3.835z" fill="#9FB1BF"/><path d="M169.505 146.701s-.935-4.554.599-4.482c1.534.072 4.818 3.355 4.962 5.417.144 2.061-7.023 9.108-7.095 7.837-.072-1.27 4.818-4.937 4.482-6.543-.335-1.606-2.948-2.229-2.948-2.229z" fill="#9FB1BF"/><path d="M92.35 146.365s-3.836-6.064-4.555-5.8c-.719.263-.79 8.125 0 9.635.791 1.51 1.438-7.215 1.438-7.215l3.116 3.38zm2.755 7.766s-1.678 2.565-.934 3.691c.743 1.127 2.924 4.842 1.773 4.65-1.15-.191-4.482-2.205-4.961-4.146-.48-1.942 2.229-7.91 2.876-7.527.647.384 1.246 3.332 1.246 3.332z" fill="#304D60"/><path d="M156.322 252.979l-.24-.599c-.024-.096-3.547-8.461-11.601-11.385-5.297-1.942-11.385-1.127-18.096 2.373l-.336-.648c6.879-3.619 13.183-4.434 18.672-2.42 7.119 2.588 10.786 9.228 11.769 11.217l30.033-41.538-11.913-7.143.36-.623 12.584 7.526-.24.312-30.992 42.928zm-61.312 3.524c-.791-5.321-.552-11.218.742-17.545a63.137 63.137 0 012.973-10.283c2.828-9.372 13.854-23.777 13.95-23.921l.575.431c-.12.144-11.05 14.454-13.854 23.706v.024a59.703 59.703 0 00-2.948 10.186c-.887 4.363-1.27 8.485-1.15 12.368.407-3.978 1.365-9.276 3.666-11.72l.096-.096h.144c.791-.048 19.391-1.031 22.171.743l-.383.599c-2.133-1.366-16.179-.935-21.596-.623-3.572 3.979-3.668 15.987-3.668 16.107l-.718.024z" fill="#1573FF"/><path d="M160.182 93.442c-.671-.575.192-.336 1.654.264a19.69 19.69 0 00-2.469-2.014v-1.366s-2.397-1.246-6.424-.527c-4.027.719-4.099 4.026-4.099 4.026l3.5 2.062c2.517 1.486 5.153 5.513 7.023 9.156-.456-2.613-1.055-5.393-1.055-5.393s4.291-.048 5.345 2.445c1.055 2.493-1.462-6.903-3.475-8.653zm-61.409 13.614a89.3 89.3 0 001.27-9.778l1.798-5.178-5.585-1.39c-5.297 4.267-7.214 8.365-7.814 13.83-.215 1.941-.24 4.937-.191 8.413.623-1.367 1.486-2.877 2.325-3.476 1.702-1.174.575 7.479 1.75 10.882.647 1.87.934.432 1.51-1.654-.048-2.732-.025-4.722.071-5.345.264-1.27 2.421-3.787 4.866-6.304z" fill="#040F1F"/><path d="M150.666 84.67a6.113 6.113 0 00-2.014-1.655c-4.41-2.277-24.352-7.766-39.74 0-13.758 6.951-18.528 11.865-20.062 18.936 4.147-3.667 9.084-6.64 9.084-6.64l-5.609 9.947 5.61-1.534-3.548 8.581c2.253-3.883 11.864-12.296 11.864-12.296l-.527 2.277 20.733-4.554-.263 1.75s3.235-3.5 7.286-5.705c1.39-2.612 13.543-4.194 13.543-4.194-1.558-2.277-11.817-5.13-11.817-5.13 6.879-.815 14.237 2.637 14.237 2.637l-4.17-3.452c1.845-.12 3.715.24 5.393 1.031z" fill="#318FFF"/><path d="M123.605 244.758l-10.906-15.556v-.12c0-.143 1.006-14.261 1.006-17.042 0-.455-.119-1.534-.335-3.187v-.096c-.24-1.75-.575-4.099-1.055-7.167a11.878 11.878 0 01-4.027-6.879c-.575-2.804-2.372-4.003-3.691-4.89l-.096-.072c-1.006-.671-3.068-5.752-6.112-15.076-.36-1.079-.743-3.404-1.054-5.273a8.258 8.258 0 01-2.373-.719c-1.846-.911-4.075-7.431-6.376-14.621-.48-1.487-.887-2.781-1.174-3.5-1.247-3.308-1.223-8.94-.96-10.618a2.042 2.042 0 01.984-1.486c.503-.288 1.126-.36 1.773-.24-.623-8.365-1.87-27.253-1.15-33.82.527-4.722 1.99-8.102 4.913-11.266 3.092-3.355 7.958-6.615 15.748-10.546l.335.647c-14.549 7.335-19.295 12.296-20.277 21.261-.72 6.639.575 26.126 1.174 34.179l.048.552-.527-.192c-.623-.24-1.247-.216-1.678.024-.336.192-.551.527-.623.959-.264 1.582-.264 7.118.91 10.258.288.743.672 1.966 1.175 3.524 1.51 4.674 4.29 13.351 6.016 14.189.767.36 1.582.6 2.421.672l.288.024.048.263c.407 2.661.79 4.578 1.054 5.417 4.195 12.824 5.537 14.501 5.825 14.717l.096.072c1.342.887 3.355 2.253 3.979 5.345a11.147 11.147 0 003.883 6.544l.095.096.024.143c.48 3.14.839 5.513 1.079 7.311v.096c.216 1.702.336 2.78.336 3.284 0 2.684-.887 15.436-1.007 16.946l10.762 15.34-.551.503z" fill="#040F1F"/><path d="M116.894 299.24c-3.979-31.855 1.797-43.648 4.578-49.304.647-1.343 1.174-2.397 1.318-3.236.431-2.301 2.085-3.404 7.047-6.664 1.582-1.054 3.571-2.349 5.992-4.002 4.674-3.188 7.526-5.441 9.875-7.766 1.75-1.726 2.373-2.565 3.38-3.907.887-1.199 2.109-2.853 4.722-5.897 1.917-2.229 3.14-3.523 4.841-5.345 1.654-1.773 3.716-3.955 7.287-7.933 1.318-1.463 2.613-2.925 3.883-4.339l.527.48a504.825 504.825 0 01-3.883 4.338c-3.571 3.979-5.656 6.184-7.31 7.934a131.99 131.99 0 00-4.818 5.321c-2.589 3.02-3.811 4.65-4.698 5.848-1.007 1.342-1.654 2.229-3.451 4.003-2.373 2.349-5.25 4.626-9.971 7.838a403.154 403.154 0 01-5.993 4.027c-4.889 3.212-6.352 4.194-6.735 6.208-.168.958-.695 1.989-1.39 3.427-2.733 5.609-8.461 17.258-4.506 48.897l-.695.072z" fill="#1573FF"/><path d="M134.199 135.723s0 7.646.527 7.622c.528-.024 2.829-1.414 2.829-1.414l16.49-.815s4.027-5.585 6.496-6.352l-11.122-5.009-15.22 5.968z" fill="#BFCFDD"/><path d="M133.552 131.193s14.189-4.554 17.377-3.619c3.188.935 9.636 7.214 9.636 7.214s-3.74-2.013-7.623-2.397c-3.883-.383-17.665 3.62-18.719 3.356-1.055-.264-.671-4.554-.671-4.554z" fill="#1573FF"/><path d="M137.555 141.955s4.722-3.739 8.821-3.308c4.098.431 7.67 2.493 7.67 2.493s-3.212 2.061-7.047 2.133c-3.835.072-9.084.383-9.444-1.318z" fill="#fff"/><path d="M148.364 143.177a3.28 3.28 0 00-.551-4.314 14.857 14.857 0 00-1.438-.216 8.14 8.14 0 00-3.044.312c-1.222 1.174-1.366 3.068-.312 4.386 1.343 0 2.733-.048 3.979-.072.48 0 .911-.048 1.366-.096z" fill="#1573FF"/><path d="M145.632 142.243a1.247 1.247 0 100-2.493 1.247 1.247 0 000 2.493z" fill="#040F1F"/><path d="M129.237 161.634s-4.458-.048-6.543 1.702c-2.085 1.749-6.28 2.229-7.55 3.955-1.271 1.725-3.835 3.14-3.38 6.519.456 3.38 1.99 3.955 1.99 3.955s1.15-3.691 2.54-4.362c1.39-.671 3.524-4.483 6.28-4.554 2.757-.072 6.424-.288 6.855-.815.432-.528-.791-2.565-.12-3.74.672-1.174-.072-2.66-.072-2.66zm3.404.359s-.791 3.236.12 4.003c.91.767.767 1.414 2.54 1.798 1.774.383 8.198-.24 9.468.719 1.27.958 3.667.167 4.53 2.54.863 2.373 1.99 3.692 2.421 3.764.431.071 1.486-4.411.336-6.712-1.151-2.301-3.116-2.852-6.256-3.475-3.14-.624-3.356-1.774-6.76-2.134-3.403-.359-4.554-1.534-6.399-.503z" fill="#9FB1BF"/><path d="M148.389 170.166c-5.273.624-10.618-3.523-13.471-1.845-2.852 1.678-5.968.287-7.766.024-1.797-.264-9.899 3.931-9.899 3.931s2.924.647 4.387.575c1.462-.072 3.283-1.87 6.831-1.199 3.547.672 5.944-.934 9.108-.335 3.164.599 8.892-.024 10.81-1.151z" fill="#304D60"/><path d="M121.424 173.354c-1.558 0-4.123-.575-4.243-.599l.144-.695c.024 0 2.9.647 4.291.575.431-.024.934-.215 1.51-.455 1.222-.503 2.924-1.199 5.393-.719 1.749.335 3.26.072 4.698-.168 1.39-.24 2.804-.479 4.41-.168 2.684.504 8.509-.024 10.57-1.246l.36.623c-2.038 1.223-7.934 1.918-11.074 1.318-1.462-.287-2.78-.048-4.147.168-1.51.264-3.068.528-4.961.168-2.253-.431-3.763.192-4.986.695-.647.264-1.198.503-1.749.527-.048-.024-.12-.024-.216-.024z" fill="#040F1F"/><path d="M133.816 143.537s.935 9.372 1.869 10.163c.935.791 3.62-.144 4.674 2.133 1.055 2.277.12 4.554-1.078 5.489 0 0 4.818-3.068-.408-7.766.024 0-4.674-7.478-5.057-10.019z" fill="#BFCFDD"/><path d="M146.879 153.868s6.231-6.616 9.491-3.092c3.26 3.523 4.291 16.922 0 17.114-4.29.191-9.491-14.022-9.491-14.022z" fill="#fff"/><path d="M105.341 145.502l-.648-.311c.072-.12 1.51-3.02 5.082-4.003 3.284-.911 7.214.096 11.649 2.972l-.384.599c-4.266-2.756-8.005-3.739-11.073-2.876-3.26.887-4.626 3.595-4.626 3.619zm32.454-3.284l-.48-.551c.096-.072 8.941-7.526 16.97-.815l-.455.552c-3.164-2.661-6.807-3.332-10.834-2.014-3.044 1.007-5.177 2.805-5.201 2.828zm1.725 17.474s-.335-2.133-2.78-1.438c-2.445.695-3.596 1.51-2.613 2.205 2.301 1.63 3.092-3.907 5.393-.767zm-16.083.12s3.38-1.678 5.393.959a.654.654 0 01-.767.527h-.024c-.671-.144-2.013-1.966-4.602-1.486z" fill="#040F1F"/><path d="M131.491 161.202a2.958 2.958 0 01-1.846-1.366c-.36-.6-.647-1.271-.432-1.534.432-.528 2.829.167 3.116.863.288.695.815 2.42.815 2.42l-1.653-.383z" fill="#E7F1FB"/><path d="M105.245 102.742l.671-2.828.695.168-.408 1.725 20.686-4.554-.168 1.15a33.247 33.247 0 014.65-3.763c4.194-2.78 8.053-3.619 11.121-2.42l-.263.67c-6.903-2.708-15.676 6.712-15.748 6.808l-.791.863.36-2.397-20.805 4.578zm29.05 33.341l-.168-.695c.671-.144 16.514-3.764 18.863-3.356 2.158.383 5.298 1.055 7.742 2.445l-.359.623c-2.349-1.318-5.417-1.989-7.502-2.349-1.822-.336-14.022 2.301-18.576 3.332z" fill="#040F1F"/><path d="M147.429 179.442s-1.558 1.103 1.366 3.164c2.925 2.062 2.469-1.582 2.469-1.582s.935.168 1.319-.215c.383-.384-5.154-1.367-5.154-1.367z" fill="#9FB1BF"/><path d="M98.221 140.661l-.527-.504c.144-.143 3.523-3.715 5.681-4.122 2.085-.384 16.97-.024 17.593 0l-.024.719c-.144 0-15.436-.384-17.45 0-1.917.359-5.249 3.883-5.273 3.907z" fill="#040F1F"/><path d="M136.332 118.681s8.845 1.246 11.769-.527c2.924-1.774-1.798-10.978-5.082-10.259-3.283.719-8.82 6.783-6.687 10.786z" fill="#fff"/><path d="M167.803 164.581c-.167 0-.335-.024-.503-.071l.168-.696c1.054.264 2.133-.862 3.284-2.061.239-.24.455-.479.695-.719 1.006-1.007 2.157-3.931 3.164-6.52a75.283 75.283 0 011.27-3.139l.647.287c-.407.935-.815 1.99-1.27 3.116-1.079 2.781-2.205 5.657-3.332 6.783-.24.24-.455.48-.695.719-1.103 1.175-2.181 2.301-3.428 2.301zm-23.873-20.277c-3.523 0-5.944-.671-5.968-.671l.191-.695c.072.024 7.287 1.989 15.005-1.031l.264.671c-3.452 1.343-6.784 1.726-9.492 1.726zm-31.519 2.9c-3.715 0-6.568-.743-6.759-.791l.191-.695c.072.024 7.958 2.085 14.67-.695l.287.671c-2.852 1.151-5.824 1.51-8.389 1.51z" fill="#BFCFDD"/></svg>