<svg width="276" height="321" fill="none" xmlns="http://www.w3.org/2000/svg"><path d="M0 0h276v320H0V0z" fill="#D9DEE3"/><path d="M165.169 146.217s2.347-4.031 4.813-2.608c2.466 1.422 4.03 4.836 2.869 13.94-1.162 9.104-4.173 14.983-7.682 15.244-3.508.261-8.084-5.856-8.084-5.856l8.084-20.72z" fill="#E7F1FB"/><path d="M166.757 147.805s2.845-2.963 4.623-.355c1.778 2.607 0 12.849 0 12.849s.451-9.199-1.92-9.436c-2.371-.237-2.323-1.185-2.703-3.058zm-3.532 6.306s2.798-2.205 3.556.901c.759 3.106.806 6.662 0 7.634-.806.972-4.149-1.375-5.31 1.162-1.162 2.536-2.537 2.726-1.944 0 .592-2.727 1.232-3.533.545-6.639-.688-3.105 3.153-3.058 3.153-3.058zm2.323 19.061c-.142 0-.284 0-.45-.023-5.05-.664-5.24-3.604-5.24-3.723l.712-.023c0 .095.189 2.465 4.623 3.034 2.252.308 3.935-2.442 4.931-4.789 1.138-2.631 1.683-5.405 1.683-5.429l.688.142c-.048.451-2.158 10.811-6.947 10.811z" fill="#BFCFDD"/><path d="M90.727 151.646s-5.382-6.354-7.397-5.738c-2.015.617-2.513 6.994-1.138 12.139 1.375 5.144 5.642 14.533 6.614 15.931.972 1.399 7.041.522 7.041.522l-5.12-22.854z" fill="#9FB1BF"/><path d="M90.181 156.861s-4.172-1.043-4.789 3.129c-.616 4.173.878 1.304 3.556 5.999 2.68 4.694 1.233-9.128 1.233-9.128z" fill="#304D60"/><path d="M102.201 205.629l.617-20.247 53.698-10.431s-.522 9.388 1.304 14.343c1.825 4.955 5.476 8.606 16.169 10.953l-11.214 39.639-39.355 8.606-15.386-7.562-9.578-32.196 3.745-3.105z" fill="#E7F1FB"/><path d="M148.218 222.318c-15.386 13.182-14.319-14.58-14.319-14.58l-17.852 6.069-12.802 9.839 5.144 17.283 15.386 7.563 33.523-7.326 7.279-6.425 9.744-34.495c-4.102-.901-7.16-1.991-9.484-3.271-1.398 5.144-5.452 15.789-16.619 25.343z" fill="#BFCFDD"/><path d="M157.132 187.729a25.906 25.906 0 01-.569-3.295l-27.264-4.22-26.695 5.192-.616 20.246-3.746 3.082 6.615 22.309c3.176-11.356 10.929-1.825 12.375-10.787 1.588-9.981 9.341-4.101 17.307-7.634 6.282-2.773 17.899-18.373 22.593-24.893z" fill="#1573FF"/><path d="M232.594 231.043C246.582 241.617 249 320.089 249 320.089H27s3.106-45.021 4.03-56.827c.925-11.807 2.181-27.027 9.934-32.314 7.752-5.287 60.502-25.178 60.502-25.178s-.616 15.529 4.339 22.381c4.955 6.851 14.604 15.22 25.177 11.806 10.574-3.414 37.293-27.027 38.526-34.187l1.232-7.136" fill="#040F1F"/><path d="M87.93 136.568s3.247 36.249 6.376 43.788c3.13 7.539 10.55 18.136 16.43 23.21 5.88 5.073 16.809 6.519 22.807 4.172 5.998-2.347 22.427-16.951 24.111-22.166 1.683-5.216 3.793-21.243 5.097-28.284 1.304-7.041 3.651-11.332 3.651-11.332s1.185-14.865-.664-19.82c-1.849-4.955-7.42-18.895-19.417-20.341-11.996-1.446-48.624 1.304-52.275 7.041-3.651 5.737-6.117 23.732-6.117 23.732z" fill="#E7F1FB"/><path d="M166.663 145.956s1.185-14.865-.664-19.82a57.688 57.688 0 00-2.371-5.572l-7.065.238s1.186 16.168 3.912 20.862c2.727 4.695-.332 22.072 1.114 24.135.522-3.295.996-6.306 1.399-8.487 1.328-7.065 3.675-11.356 3.675-11.356zM153.6 150.01s-8.084 13.039-11.285 15.054c-3.2 2.015-18.919-15.884-19.085-17.52-.166-1.636 30.37 2.466 30.37 2.466z" fill="#BFCFDD"/><path d="M132.168 165.064s13.869 2.94 15.434 7.752c1.565 4.813-3.841 14.201-8.061 14.201s-3.319-7.681-3.319-7.681l-11.996-1.067-3.129-11.617 11.071-1.588z" fill="#9FB1BF"/><path d="M124.06 149.014s-1.944 6.78-1.423 8.724c.522 1.944 1.115 8.464 1.257 10.147.142 1.684 4.244 1.802 6.449 1.162 2.204-.64 5.689-5.145.592-9.151-5.097-4.007-6.022-14.178-6.875-10.882z" fill="#fff"/><path d="M139.541 139.294c2.703-3.628.284-26.861.284-26.861l-25.699-5.453c-9.91 1.256-18.42 3.248-20.08 5.856-3.651 5.737-6.117 23.731-6.117 23.731s3.248 36.25 6.377 43.789c3.13 7.539 10.55 18.136 16.43 23.21 3.556 3.082 9.009 4.836 14.082 5.192 1.85-7.729 6.828-17.544 6.828-17.544l-7.42-12.921-1.138-7.42c2.062-.498 3.414-2.371 1.138-5.761-2.276-3.391-.877-16.691 1.493-16.643 2.371.047 5.216 2.11 5.216 2.11l-.19-8.156s6.07.498 8.796-3.129z" fill="#BFCFDD"/><path d="M114.862 141.072c-2.016-3.651-8.417-4.22-13.087-4.647-3.106-.284-5.335-.474-6.046-1.399-.19-.26-.26-.545-.213-.877.521-3.177 7.207-13.134 7.492-13.561l.592.403c-.071.095-6.875 10.266-7.373 13.3a.41.41 0 00.071.332c.522.664 2.964.901 5.548 1.115 4.813.426 11.427 1.019 13.632 5.002l-.616.332z" fill="#9FB1BF"/><path d="M140.585 115.301s-2.347 2.537 0 6.33c2.347 3.794 9.222 2.537 11.379 0 2.158-2.536-4.67-10.668-11.379-6.33zm-.167 9.578s9.768-.355 10.479 1.802c.711 2.157 1.494 15.552 1.494 15.552l-15.41-2.157a26.447 26.447 0 001.802-8.321c.189-4.529-.901-6.852 1.635-6.876z" fill="#fff"/><path d="M130.745 142.423l.19 8.156a26.38 26.38 0 002.537 4.954c1.754 2.727 18.065-5.215 20.151-5.5 2.087-.284-8.013-4.955-9.933-9.341l-12.945 1.731z" fill="#9FB1BF"/><path d="M143.405 146.146l-11.688 2.655 10.645 2.513s-9.151-1.707-10.645-2.513c-1.493-.806-.498-4.41-.166-5.761 1.755-7.113 11.854 3.106 11.854 3.106z" fill="#304D60"/><path d="M114.126 106.98c-9.91 1.256-18.42 3.248-20.08 5.856-3.651 5.737-6.117 23.731-6.117 23.731s3.248 36.25 6.377 43.789c3.13 7.539 10.55 18.136 16.43 23.21 3.556 3.082 9.009 4.836 14.082 5.192 1.85-7.729 6.828-17.544 6.828-17.544l-7.42-12.921-.522-3.343-16.358-.166s-5.169 5.406-7.42.854c-2.253-4.552-9.27-28.687-8.109-37.885 1.162-9.199 8.108-16.809 8.108-16.809s6.164 4.884 13.609-.782c7.444-5.667 26.315-7.706 26.315-7.706l-25.723-5.476z" fill="#9FB1BF"/><path d="M117.398 142.376s1.399 5.974 2.371 7.42c.972 1.446-6.97 4.955-13.466 4.386-6.496-.569-8.843-1.873-10.455-6.022-1.612-4.148 6.282-3.935 8.345-6.496 2.063-2.56 13.205.712 13.205.712z" fill="#9FB1BF"/><path d="M114.458 142.068s2.679 6.851 2.11 7.444-16.05.213-16.05.213 3.414-6.685 7.824-7.657c4.409-.972 6.116 0 6.116 0z" fill="#304D60"/><path d="M88.83 148.824s-1.304-8.605-1.825-11.735c-.522-3.129-1.707-18.634-.901-22.427.806-3.794 4.315-13.301 10.81-18.256 6.497-4.954 12.021-7.823 23.685-8.985 11.664-1.162 25.462 1.683 33.428 6.52 7.966 4.836 9.246 8.606 7.563 14.201-1.684 5.595-6.52 7.041-6.52 7.041l-5.334-5.216s-6.781 3.391-18.113 2.608c-11.332-.782-22.025 7.041-23.85 7.563-1.826.522-2.727-2.157-2.727-2.157l-4.03-2.94s-5.5 7.586-8.369 10.052c-2.868 2.466-.118 9.388-.782 12.636-.664 3.248-3.035 11.095-3.035 11.095z" fill="#040F1F"/><path d="M102.557 205.652l-.712-.024.214-11.166c-3.485-4.742-6.425-9.768-8.085-13.798-.474-1.138-.948-2.893-1.47-5.382-2.228.047-3.532-.261-3.983-.948-.995-1.423-5.263-10.882-6.661-16.027-1.375-5.049-.996-11.854 1.375-12.589 1.185-.355 3.817 1.779 5.192 2.988-.38-2.49-1.375-8.938-1.778-11.428-.546-3.248-1.707-18.705-.901-22.546.64-3.105 4.03-13.205 10.953-18.469 6.662-5.073 12.186-7.87 23.85-9.056l.071.711c-11.498 1.162-16.927 3.912-23.495 8.914-6.756 5.145-10.052 15.008-10.692 18.043-.758 3.698.403 19.155.925 22.285.521 3.106 1.92 12.328 1.944 12.423l.166 1.019-.759-.711c-1.707-1.612-4.457-3.77-5.24-3.509-1.611.474-2.323 6.354-.9 11.712 1.375 5.073 5.595 14.414 6.543 15.813.142.213.806.711 3.675.616h.308l.071.285c.522 2.56 1.02 4.433 1.494 5.548 1.66 4.006 4.6 9.009 8.061 13.75l.071.095-.237 11.451zm49.834-93.006s7.159-3.722 9.103-4.101c1.944-.38 5.477 5.476 6.378 11.854.901 6.377-1.423 25.936-1.423 25.936s-2.726-9.649-2.987-13.94c-.261-4.291-4.315-5.216-6.638-9.246-2.323-4.031-4.433-10.503-4.433-10.503z" fill="#040F1F"/><path d="M115.999 92.4c-.19.048-.356.095-.521.19l.521-.19zm21.574 9.957c.972-.782 13.893-1.944 13.893-1.944l-12.684-3.723c2.774-1.754 13.609 0 13.609 0l-6.022-2.536s4.907.26 7.515-.261c-7.966-4.79-21.716-7.61-33.309-6.449-1.352.143-2.632.308-3.841.474l7.278 1.731-8.013 2.75c2.679-.592 11.332.57 11.332.57l-10.502 6.756c8.796-3.627 15.457 0 15.457 0l-6.851 3.817c2.94 1.376 15.955 5.003 15.955 5.003l-1.564 3.912a44.124 44.124 0 004.646-.759 55.1 55.1 0 005.998-6.235c0-.048-13.869-2.324-12.897-3.106z" fill="#318FFF"/><path d="M156.895 96.312c-7.373-4.434-14.935-7.279-22.498-8.488-6.046-.948-12.091-.853-17.995.285-5.239 1.02-9.388 2.702-11.948 3.935-2.774 1.328-4.315 2.442-4.339 2.466l-.426-.57c.07-.047 1.588-1.137 4.409-2.512 2.584-1.257 6.804-2.964 12.115-4.007a52.414 52.414 0 0118.255-.308c7.657 1.21 15.315 4.102 22.759 8.582l-.332.617zm-62.636 47.676s15.505-1.944 20.981-1.423c5.477.522-.26-2.726-5.334-3.769-5.073-1.043-10.289-1.304-11.593-.522-1.304.783-4.813 2.987-5.216 4.031-.403 1.043 1.162 1.683 1.162 1.683zm36.486-1.565s15.387 1.043 19.156 2.489c3.77 1.447 5.216 0 5.074-1.232-.142-1.233-7.563-5.809-10.692-5.88-3.13-.071-13.395 1.233-13.538 4.623z" fill="#040F1F"/><path d="M97.815 150.413s9.294-8.82 13.585-4.884l4.291 3.935s-12.873 3.462-17.876.949z" fill="#fff"/><path d="M115.714 149.465l-4.291-3.936c-3.911-3.58-11.996 3.438-13.395 4.694 5.026-.972 13.04-3.509 13.941-2.774.616.498.237 1.85-.166 2.893a68.735 68.735 0 003.911-.877z" fill="#BFCFDD"/><path d="M131.718 148.777s5.476-6.282 11.688-2.655l6.235 3.651s-7.776 2.323-12.139 1.541c-4.362-.782-5.784-2.537-5.784-2.537z" fill="#fff"/><path d="M143.406 146.146c-6.236-3.651-11.688 2.655-11.688 2.655.142.166.308.308.474.45 2.015-.711 5.785-1.849 9.198-1.801 3.414.047 6.093 1.635 7.397 2.608.546-.143.854-.238.854-.238l-6.235-3.674z" fill="#BFCFDD"/><path d="M111.542 179.336s.948 4.718 1.659 5.5c.712.783 11.214 4.623 16.952 2.181 5.737-2.441 6.092-3.437 6.092-3.437v-5.287l-24.703 1.043z" fill="#fff"/><path d="M112.159 179.716a19.849 19.849 0 001.043 5.121l-2.893-2.347-1.114-1.541 2.964-1.233zm26.623-.119l-.664 2.893-3.342 1.849s1.896-3.153 1.446-5.003c-.451-1.849 2.56.261 2.56.261z" fill="#304D60"/><path d="M108.484 180.949s4.742-4.86 8.464-4.362c3.722.498 8.724 0 11.569-.878 2.845-.877 10.218 3.248 10.953 3.604.735.356-7.088.759-10.076.498-2.987-.261-6.235 1.114-11.711.237-5.477-.877-3.96.901-9.199.901z" fill="#304D60"/><path d="M108.484 181.304v-.711c2.276 0 3.248-.332 4.078-.64 1.114-.38 2.062-.735 5.168-.237 3.319.521 5.761.237 7.918-.024 1.376-.166 2.561-.308 3.77-.213 2.869.237 9.341-.095 9.886-.356a.307.307 0 00-.142.261c0 .142.095.237.142.261l.308-.641c.214.119.285.309.237.475-.071.26-.142.521-4.362.711-2.442.118-4.836.118-6.14 0-1.114-.095-2.276.047-3.604.213-2.086.261-4.694.569-8.108.024-2.94-.474-3.769-.19-4.836.19-.877.331-1.897.687-4.315.687z" fill="#040F1F"/><path d="M110.309 182.49s5.737 7.871 7.966 8.724c2.228.854 11.877.498 13.371 0 1.494-.498 6.14-7.8 6.472-8.724.332-.925-3.39 2.323-7.231 2.726-3.84.403-10.882 1.494-13.276.83-2.395-.664-7.302-3.556-7.302-3.556z" fill="#9FB1BF"/><path d="M97.033 150.887h-.023l.047-.711h-.047c.19-.048.924-.569 1.635-1.067 1.731-1.209 4.624-3.272 7.966-4.623 5.358-2.205 9.341 4.741 9.389 4.812l-.617.356c-.047-.071-3.722-6.472-8.487-4.504-3.272 1.327-6.117 3.342-7.824 4.552-1.256.877-1.707 1.185-2.039 1.185z" fill="#040F1F"/><path d="M140.087 150.484c1.635 0 2.987-1.327 2.987-2.963 0-.759-.285-1.47-.806-2.039a7.77 7.77 0 00-3.746-.522 2.97 2.97 0 00-.996 4.078 2.964 2.964 0 002.561 1.446zm-28.687-2.205a3.05 3.05 0 00-3.058-3.058 3.05 3.05 0 00-3.058 3.058c0 1.233.711 2.323 1.849 2.821a56.52 56.52 0 003.177-.45 3.112 3.112 0 001.09-2.371z" fill="#1573FF"/><path d="M149.427 150.057c-4.812-3.817-9.009-5.358-12.494-4.623-3.414.711-4.884 3.485-4.907 3.509l-.64-.332c.071-.119 1.635-3.082 5.381-3.888 3.699-.782 8.108.806 13.087 4.765l-.427.569z" fill="#040F1F"/><path d="M140.015 148.801a1.375 1.375 0 100-2.75 1.375 1.375 0 000 2.75zm-31.673.924a1.422 1.422 0 100-2.845 1.422 1.422 0 000 2.845z" fill="#040F1F"/><path d="M127.972 244.438c-5.168 0-9.768-.877-13.727-2.584-5.453-2.371-9.578-6.33-12.233-11.712-5.31-10.787-3.936-22.949-3.912-23.067l.711.094c-.024.119-1.375 12.091 3.841 22.665 2.584 5.24 6.567 9.08 11.878 11.38 5.192 2.276 11.545 3.011 18.824 2.228 4.22-.45 11.996-3.84 24.988-17.472 8.44-8.843 14.343-17.117 14.58-18.232.569-2.655 1.565-7.254 1.565-7.254l.687.142s-.996 4.599-1.565 7.255c-.592 2.75-25.462 34.684-40.208 36.249a47.58 47.58 0 01-5.429.308z" fill="#1573FF"/><path d="M105.284 180.213s4.48-10.573 9.862-8.748c5.382 1.826 13.3 1.328 16.169-.332 2.868-1.659 10.479 5.216 9.673 7.35-.593 1.612-4.149-3.628-10.076-3.367-5.927.261-7.279 3.841-13.988 1.494-6.709-2.347-8.511 5.239-11.64 3.603z" fill="#304D60"/><path d="M128.494 204.206c-.072-2.347 4.314-12.328 2.228-12.186-2.086.142-10.147.711-10.147.711-.189 4.173 3.841 7.302 2.798 8.962-1.043 1.66-1.328 2.252-9.934 0-8.25-2.181-19.677-24.822-20.602-26.648.237 1.162.474 2.205.735 3.106.332 1.067.759 2.205 1.233 3.39 3.366 7.445 10.336 17.189 15.908 22.025 5.856 5.073 16.809 6.52 22.807 4.172 4.077-1.612 13.039-8.914 18.847-15.03-8.487 7.752-23.779 13.845-23.873 11.498z" fill="#304D60"/><path d="M118.607 175.922c4.125.996 6.259-.023 9.744-.545 2.039-1.494 3.082-3.509 2.987-4.244-2.868 1.66-10.787 2.158-16.169.332a7.966 7.966 0 003.438 4.457z" fill="#040F1F"/><path d="M124.937 188.25c-.261-.829-.925-1.541-1.802-2.133-2.3.189-4.41.261-5.524-.048-2.418-.663-7.302-3.556-7.302-3.556s5.737 7.871 7.966 8.725c2.228.853 11.877.498 13.371 0 .64-.214 1.897-1.731 3.129-3.438-2.702 3.509-8.843 3.77-9.838.45zm10.1-.853l-.048.071.308-.45c-.071.118-.166.237-.26.379zm-4.339-25.106s1.944 3.342 2.11 4.385c.166 1.044-5.667 4.647-6.947 4.386-1.28-.26-2.205-2.323.996-2.607 3.201-.285 4.979-1.304 5.192-1.826.213-.522-1.351-4.338-1.351-4.338z" fill="#304D60"/><path d="M123.254 205.628c-1.114 1.114-3.272 1.66-4.931 1.921 5.334 1.635 11.332 1.707 15.22.189a19.417 19.417 0 003.509-1.944c-10.36 1.92-11.854-2.086-13.798-.166z" fill="#040F1F"/><path d="M138.854 152.523c-2.181 0-4.528-.237-6.875-.877l.189-.688c8.298 2.253 16.525-.687 16.62-.711l.237.664c-.072.024-4.505 1.612-10.171 1.612zm-31.887-.522c-.712 0-1.47-.023-2.253-.047-3.674-.119-6.685-.522-6.709-.522l.095-.711c.118.024 11.901 1.541 17.473-.545l.237.664c-2.039.782-5.003 1.161-8.843 1.161z" fill="#BFCFDD"/><path d="M87.93 150.152s-3.415-3.201-4.387-2.11c-.972 1.091.332 11.522.332 11.522s-.332-10.147 1.944-8.701c2.276 1.446 3.746 1.209 2.11-.711z" fill="#304D60"/><path d="M119.081 152.333s1.304 9.957 0 11.475c-1.09 1.256-2.987 2.252-5.192 1.469-2.205-.782 2.252-4.457 3.627-5.381 1.613-1.091 1.565-7.563 1.565-7.563z" fill="#9FB1BF"/><path d="M115.264 161.626s-3.651 3.651-3.295 6.164c.355 2.514 9.127 3.912 9.127 3.912s-3.817-5.121-5.215-4.433c-1.399.687 2.347 3.295 2.347 3.295s-5.548-.829-5.477-3.295c.071-2.466 2.513-5.643 2.513-5.643zm-5.097 23.851s-5.619-4.457-5.951-6.567c-.332-2.11 5.951-14.296 5.951-14.296s-4.268 12.067-4.007 13.513c.261 1.446 4.007 7.35 4.007 7.35zm24.348-22.712s6.756 9.412 7.586 13.561c.83 4.148-3.343 10.692-3.343 10.692s2.561-6.757 1.138-10.692c-1.422-3.936-5.381-13.561-5.381-13.561z" fill="#304D60"/><path d="M153.6 153.614s-9.412 8.274-9.815 11.285c-.403 3.011 4.623 10.929 6.283 11.593 1.659.664 5.808-10.218 6.211-14.249.403-4.03-2.679-8.629-2.679-8.629z" fill="#fff"/><path d="M143.974 201.005l-.426-.569c6.187-4.67 11.261-10.929 13.276-13.892 1.256-1.85 3.746-17.71 4.623-23.685l.711.095c-.118.877-3.129 21.622-4.718 23.969-2.062 3.011-7.183 9.364-13.466 14.082z" fill="#304D60"/></svg>