<svg width="276" height="320" fill="none" xmlns="http://www.w3.org/2000/svg"><path d="M0 0h276v320H0V0z" fill="#D9DEE3"/><path d="M172.613 145.493s1.736 12.617 1.736 15.725c0 3.108 5.812 13.592 0 17.094-5.812 3.502-11.624-5.636-11.624-5.636l9.888-27.183z" fill="#E7F1FB"/><path d="M169.186 161.45s2.663.209 2.663 3.317 2.964 4.407 1.875 5.891c-1.088 1.484-2.454-.394-5.094 2.714s.556-11.922.556-11.922zm.741-5.474s2.5-4.917 3.403 6.61c0 0-2.593-5.311-4.399-4.662-1.806.65.996-1.948.996-1.948z" fill="#BFCFDD"/><path d="M93.536 147.812s-3.497 11.272-4.076 17.465c-.578 6.193.58 13.638 4.076 13.8 3.496.162 5.812-2.551 5.812-2.551l-5.812-28.714z" fill="#9FB1BF"/><path d="M94.323 153.356s-2.779 5.45-2.964 8.953c0 0 2.94-4.106 4.562-3.155 1.62.951-1.598-5.798-1.598-5.798zm1.968 8.094s-2.385-.232-2.408 2.528c-.023 2.76-2.709 4.198-2.014 5.729.694 1.531 3.635-.51 4.84 1.531 1.203 2.041 2.616 0 2.616 0l-3.034-9.788z" fill="#304D60"/><path d="M262.318 319.977s-13.963-72.178-23.271-76.237c-9.309-4.059-63.586-26.811-63.586-26.811s-7.109-7.677-15.515-5.613c-8.405 2.064-50.386-3.502-57.75 6.61 0 0-56.222 15.934-66.689 31.844C25.041 265.681 13 319.977 13 319.977h249.318z" fill="#040F1F"/><path d="M106.595 191.509l3.613 19.459 1.296 13.684s15.005 29.247 54.277 9.069c0 0 8.267-18.648-2.06-21.5l1.296-24.864-58.422 4.152z" fill="#E7F1FB"/><path d="M123.175 190.326l-16.556 1.183 3.612 19.459 1.297 13.684a25.12 25.12 0 002.2 3.34c.856-1.925 2.13-3.433 4.608-3.479 6.831-.139-1.945-14.38 7.757-12.432 9.702 1.948 25.054-5.566 25.054-5.566l-27.972-16.189z" fill="#1573FF"/><path d="M127.968 207.791l-18.895-16.468-2.478.186 3.613 19.459.81 8.651c4.214-3.224.579-13.73 3.774-12.455 3.196 1.276 13.176.627 13.176.627z" fill="#040F1F"/><path d="M170.668 139.857s-.139 26.278-1.691 36.901c-1.551 10.622-9.563 25.118-17.83 29.78-8.266 4.662-25.865.788-30.496 0-4.631-.789-18.084-16.305-20.168-22.011-2.085-5.705-4.91-23.819-4.91-35.462 0-11.643 6.716-44.787 7.503-45.042.787-.255 35.15-4.407 36.192-4.152 1.042.256-.764-4.151 10.351 3.364 11.115 7.514 21.072 18.114 21.072 18.114l-.023 18.508z" fill="#E7F1FB"/><path d="M142.116 106.853s6.715 17.743 6.206 21.222c-.509 3.479-14.403-.139-4.307 9.277l15.815-.719s-.648-16.56-2.454-23.68c-1.806-7.121-15.26-6.1-15.26-6.1z" fill="#fff"/><path d="M124.819 159.525s-12.434 2.552-16.811 1.925c-4.376-.626-4.793 12.757 0 17.651 4.793 4.893-7.016-2.992-7.016-2.992V158.76l.996-4.963 1.759-.441 22.647.487-1.575 5.682zm.88 13.87s-6.53 5.172-6.507 10.877c.023 5.706 14.009-.765 14.009-.765s4.493-7.376 3.335-8.419c-1.158-1.044-10.837-1.693-10.837-1.693zm42.676-38.386s.37 26.418-2.64 32.03c-3.01 5.613-13.152 4.662-12.735 22.336.324 13.289-.88 16.281-1.506 16.954 8.151-4.848 15.978-19.111 17.506-29.572 1.552-10.622 1.69-36.9 1.69-36.9v-3.433l-2.315-1.415z" fill="#BFCFDD"/><path d="M144.015 137.352s-5.001 8.35-4.863 12.478c.139 4.129 11.416 7.7 20.215 5.381 8.8-2.319 5.928-6.935 5.928-6.935s-1.157-5.311-.532-7.839l-7.132-4.731-13.616 1.646z" fill="#BFCFDD"/><path d="M151.147 206.515c-1.505-8.095-30.496 0-32.51-10.159-2.015-10.159-4.168-12.965-13.361-20.48-9.193-7.514 0-20.99 0-20.99 3.867 2.876 14.102.441 15.977 1.067 1.876.626.834 5.497 2.27 7.492 1.435 1.994 4.237 2.388 4.237 2.388s.834-9.509.648-16.583c-.185-7.074-6.9-15.006-6.9-15.006s-3.96-.069-3.937-6.958c.024-6.888 7.225-23.819 7.225-23.819l-7.664-1.276c-7.341.881-13.732 1.693-14.056 1.809-.764.255-7.502 33.398-7.502 45.041 0 11.644 2.848 29.781 4.909 35.463 2.06 5.683 15.514 21.222 20.168 22.011 4.655.788 22.207 4.661 30.496 0z" fill="#9FB1BF"/><path d="M113.866 134.36c-1.597-4.569-1.25-10.878 1.019-18.74 1.691-5.845 3.867-10.414 3.89-10.46l.626.301c-.093.186-8.591 18.114-4.886 28.69l-.649.209z" fill="#304D60"/><path d="M141.445 208.741c-2.014-3.989-20.145-2.992-22.461-5.311-2.315-2.319-9.308-16.143-15.584-21.477-6.275-5.335-4.561-17.975-3.705-24.098.857-6.123 7.897-5.474 7.897-5.474l14.495-3.084c.88-6.68-2.709-10.414-2.709-10.414l-11.439-4.639c-2.154-10.298 6.854-29.548 6.854-29.548l-12.597 1.925c-2.014 8.094-6.669 32.702-6.669 42.421 0 11.643 2.849 29.78 4.909 35.462 2.061 5.683 15.515 21.222 20.169 22.011 3.196.556 12.597 2.574 20.84 2.226z" fill="#304D60"/><path d="M96.292 161.45s-.81-23.541 1.898-26.069l2.71-2.528s-1.529-20.782 10.466-24.469c11.995-3.688 19.196 1.368 29.663 2.713 10.466 1.346 11.624 6.982 20.539 6.031 0 0 .393 16.513 6.784 17.858l1.552 20.967s1.088-5.381 4.26-6.03c0 0 1.158-36.506-2.13-37.086l-3.288-.58s2.524-3.688-2.13-9.138c-4.655-5.45-13.57-14.566-21.327-14.96-7.757-.394-22.878-.186-25.008 2.134 0 0-3.682-1.74-10.281 1.74-6.6 3.502-18.617 14.959-15.514 21.152 0 0-3.289 4.082-2.525 8.744.765 4.661.58 29.038.58 29.038s3.357 7.004 3.75 10.483z" fill="#040F1F"/><path d="M153.138 320l-1.759-39.777h46.01v39.754h-.695v-39.058h-44.598l1.737 39.058-.695.023z" fill="#1573FF"/><path d="M143.621 135.195s14.149-2.134 16.673 0c2.524 2.134 6.391 5.242 4.445 5.242-1.945 0-4.445-2.714-7.571-2.134-3.126.58-10.652 1.554-12.412.788-1.76-.765-1.135-3.896-1.135-3.896zm-22.09-.951s.579 4.639-2.13 4.639c-2.709 0-10.073-2.319-12.805 0-2.733 2.319-5.627 5.45-5.627 5.45s2.917-9.857 6.97-10.089c4.052-.232 13.592 0 13.592 0z" fill="#040F1F"/><path d="M104.558 150.016l-.579-.394c2.755-3.966 6.044-6.123 9.748-6.425 6.831-.557 12.643 5.358 12.875 5.59l-.509.487c-.047-.07-5.812-5.915-12.342-5.381-3.451.301-6.553 2.342-9.193 6.123zm56.57-3.131c-2.27-3.015-4.979-4.685-8.036-4.987-5.927-.556-11.3 4.245-11.369 4.291l-.463-.51c.231-.209 5.65-5.056 11.902-4.477 3.265.302 6.136 2.088 8.544 5.265l-.578.418z" fill="#9FB1BF"/><path d="M143.529 149.83s5.465-7.886 16.834 0c0 0-10.003 6.471-16.834 0zm-20.007.765s-7.479-8.929-17.436 1.299c0 0 10.721 4.013 17.436-1.299z" fill="#fff"/><path d="M155.292 149.505a3.886 3.886 0 00-1.158-2.76 11.614 11.614 0 00-5.048-.278 3.841 3.841 0 00-.671 5.381c.208.255.44.51.718.696 1.62.232 3.265.162 4.862-.209a3.751 3.751 0 001.297-2.83zm-36.655.325c0-.997-.371-1.948-1.066-2.644-1.736-.348-3.82-.255-6.113.766-1.042 1.855-.37 4.175 1.459 5.218l.278.139c1.111.07 2.223.047 3.334-.069a3.815 3.815 0 002.108-3.41z" fill="#1573FF"/><path d="M114.816 151.384c.857 0 1.551-.695 1.551-1.554a1.552 1.552 0 10-3.103 0c0 .859.695 1.554 1.552 1.554zm36.632-.533a1.553 1.553 0 000-3.108c-.857 0-1.551.695-1.551 1.554 0 .858.694 1.554 1.551 1.554z" fill="#040F1F"/><path d="M106.341 152.126l-.533-.463c.186-.209 4.446-4.987 9.957-5.08 2.895-.046 5.604 1.23 8.012 3.781l-.509.487c-2.269-2.412-4.793-3.618-7.479-3.572-5.187.093-9.402 4.801-9.448 4.847zm53.814-2.018c-3.589-2.806-7.016-4.012-10.212-3.571-3.936.556-6.113 3.479-6.136 3.502l-.556-.418c.093-.139 2.362-3.2 6.577-3.78 3.38-.464 6.993.765 10.744 3.711l-.417.556z" fill="#040F1F"/><path d="M123.522 153.843s-6.066 3.502-14.866 1.554l14.866-1.554z" fill="#BFCFDD"/><path d="M152.653 157.391c-1.575 0-2.988-.278-4.169-.649-3.403-1.067-5.58-3.062-5.673-3.131l.463-.51c.024.023 2.154 1.971 5.442 2.992 4.353 1.368 8.545.51 12.458-2.529l.417.557c-3.196 2.482-6.299 3.27-8.938 3.27zm-35.058 27.391s3.103 5.01 8.012 6.727c4.909 1.716 14.819-.766 18.686-.696 3.867.069 5.604-7.074 5.604-7.074l-20.678 1.043h-11.624z" fill="#9FB1BF"/><path d="M117.595 184.783s10.072-3.619 15.63-1.299c0 0 4.399-3.618 16.672.255 0 0-11.902 4.801-32.302 1.044z" fill="#304D60"/><path d="M132.646 186.893c-4.33 0-9.401-.371-15.121-1.438l.116-.696c20.076 3.688 32.001-.974 32.117-1.02l.255.649c-.07.047-6.345 2.505-17.367 2.505z" fill="#040F1F"/><path d="M123.87 171.238s3.612-2.598 7.063 0c3.45 2.597 6.298.719 7.757-1.16 1.458-1.879 4.399.232 5.256 1.206.857.974-6.553 8.744-10.026 8.651-3.474-.092-11.671-5.775-10.05-8.697z" fill="#9FB1BF"/><path d="M136.559 172.791s2.061-4.406 5.511-2.667c3.451 1.74-5.511 2.667-5.511 2.667zm-6.368.001s-1.296-4.221-4.561-2.25c-3.265 1.971 4.561 2.25 4.561 2.25z" fill="#040F1F"/><path d="M165.805 233.698s8.266-18.648-2.061-21.501c0 0 2.038 18.114-11.393 23.82-12.18 5.149-26.467-8.257-31.075-.928 8.406 5.798 22.739 9.811 44.529-1.391z" fill="#9FB1BF"/><path d="M141.491 162.285s3.59 1.09 3.59 7.7c.023.024 3.681-6.865-3.59-7.7zm21.837.742s-5.674 8.141-13.431 9.741c-7.757 1.6 2.524 3.734 5.395 2.296 2.872-1.438 8.036-12.037 8.036-12.037z" fill="#BFCFDD"/><path d="M147.604 160.058s15.33-.904 16.858-2.319c1.528-1.415-4.863 10.182-11.485 11.574-6.623 1.391-5.373-9.255-5.373-9.255zm-9.841-20.827s-1.598 8.373-1.019 17.511c.579 9.138 1.899 13.638-1.227 14.496-3.126.858-4.492-.534-5.349-5.103-.857-4.569 1.088-20.735 1.598-27.855.509-7.12 6.761-4.708 5.997.951zm-29.083 23.355s9.748.256 11.392-.301c1.645-.557-2.176 5.126-5.696 5.311-3.52.186-10.721-5.056-5.696-5.01z" fill="#fff"/><path d="M174.396 135.381c-.023-10.252-.463-22.173-2.339-22.521l-3.288-.58s2.524-3.688-2.13-9.138c-4.655-5.45-13.57-14.565-21.327-14.96-7.757-.394-22.878-.185-25.008 2.134 0 0-3.682-1.74-10.281 1.74-6.6 3.502-18.525 14.866-15.538 21.082.741-1.252 11.069-18.485 18.779-16.235 7.989 2.32 13.13-3.502 13.13-3.502s21.697 7.955 15.746 13.405c-1.459 1.346-1.552 2.83-.834 4.314 10.235 1.415 11.462 6.958 20.308 5.984 0 0 .393 16.514 6.784 17.859l4.33-.974a6.851 6.851 0 001.668 1.392z" fill="#1573FF"/><path d="M111.088 224.675l-1.297-13.661-3.01-16.212c-3.451-4.175-5.975-7.978-6.762-10.159-.532-1.484-1.135-3.803-1.737-6.749-1.018.742-2.732 1.67-4.862 1.554-.81-.046-1.552-.441-2.177-1.16-2.13-2.481-2.663-8.326-2.223-13.034.394-4.198 2.13-10.739 3.126-14.264 0-1.206.162-24.446-.579-28.922-.717-4.268 1.83-8.002 2.455-8.837-2.918-6.587 9.424-18.068 15.746-21.431 6.669-3.525 10.42-1.832 10.582-1.763l-.301.626c-1.227-.58-4.909-.95-9.957 1.74-6.947 3.688-18.224 14.96-15.376 20.712l.093.209-.139.185c-.023.047-3.195 4.013-2.454 8.466.764 4.639.602 28.11.602 29.108v.046l-.023.046c-.996 3.503-2.733 10.02-3.103 14.195-.417 4.406.046 10.205 2.037 12.501.51.58 1.066.881 1.69.928 2.247.116 3.984-1.044 4.817-1.763l.44-.371.116.58c.625 3.177 1.25 5.659 1.806 7.19.764 2.133 3.265 5.868 6.715 10.019l.047.07 3.056 16.444 1.297 13.684-.625.023zm-15.306-63.503l-.301-1.508.671-.162c.116.394.209.788.278 1.206v.023l.023.348-.671.093z" fill="#040F1F"/><path d="M115.788 182.927c-2.477-5.218 7.202-15.887 7.619-16.351l.509.464c-.093.116-9.772 10.784-7.502 15.585l-.626.302zm34.132 0l-.625-.301c.926-1.949-.07-5.265-2.872-9.533a53.014 53.014 0 00-4.654-6.03l.51-.464c.44.418 10.119 11.11 7.641 16.328zm-20.747 10.275s10.397-.65 12.434 0c2.038.649-4.006 5.102-7.409 4.778-3.404-.325-8.36-4.616-5.025-4.778z" fill="#BFCFDD"/></svg>