<svg width="276" height="320" fill="none" xmlns="http://www.w3.org/2000/svg"><path d="M0 0h276v320H0V0z" fill="#D9DEE3"/><path d="M172.594 150.371s5.399-6.937 7.984-4.748c2.584 2.19-2.054 11.823-2.192 20.72-.139 8.896-4.638 10.671-7.2 8.481-2.561-2.189 1.408-24.453 1.408-24.453z" fill="#E7F1FB"/><path d="M173.24 152.952s3.599-6.96 5.791-5.139c2.192 1.82-.461 10.417-.461 10.417s1.038-5.923.069-6.891c-.969-.968-3.946 5.347-5.538 4.955-1.592-.392.139-3.342.139-3.342z" fill="#9FB1BF"/><path d="M172.94 158.76s2.238-3.895 2.307-.761c.069 3.135 3.092 2.95 2.146 5.532-.946 2.581-2.93.253-3.507 3.872-.577 3.618-2.792 2.765-2.792 2.765l1.846-11.408z" fill="#9FB1BF"/><path d="M101.5 154.15s-5.33-6.868-6.276-3.964c-.946 2.904 2.492 19.728 2.492 20.074 0 .346-2.146 5.485.554 6.684 2.699 1.198 4.338-.761 4.338-.761L101.5 154.15z" fill="#BFCFDD"/><path d="M100.116 153.989s-3.185-3.481-3.623-.899c-.462 2.581.9 8.112.9 8.112s-1.546-5.784 1.638-4.886c3.184.899 1.085-2.327 1.085-2.327zm0 6.245s-2.47.692-1.823 3.25c.646 2.558-.808 6.292.854 5.716 1.661-.576 2.238-.968 2.238-.968l-1.269-7.998z" fill="#304D60"/><path d="M184.062 219.052s43.795 26.897 52.033 40.449c8.238 13.551 11.33 60.499 11.33 60.499H29s17.514-81.911 29.374-93.227c11.86-11.316 112.812-19.544 125.688-7.721z" fill="#040F1F"/><path d="M107.315 191.533s6.692 16.733 3.346 33.696c0 0 31.936 7.214 46.611 2.304 14.675-4.909 16.752-14.266 16.752-14.266l-7.984-7.329s.508-21.088-.253-27.772c-.762-6.684-58.472 13.367-58.472 13.367z" fill="#E7F1FB"/><path d="M141.489 227.21c-8.584.346-11.722-.945-12.806 1.037 9.783 1.176 21.298 1.729 28.589-.691 14.676-4.886 16.752-14.266 16.752-14.266l-7.984-7.352s-12.76 20.811-24.551 21.272z" fill="#9FB1BF"/><path d="M110.084 201.305s3.508 15.673.554 23.924l-11.353-7.906-10.037 15.834s-2.7-7.721 1.361-11.985c4.062-4.263 9.669-15.626 13.13-16.594 3.461-.968 2.677-5.209 6.345-3.273zm56.071-2.051l-.115 6.684 7.061 7.329s-19.614 13.667-26.282 15.811l14.445.161s12.091 17.862 11.837 22.471c0 0 15.206-22.125 14.929-29.593-.277-7.467-4.615-20.811-21.875-22.863z" fill="#1573FF"/><path d="M119.268 187.546c-7.015 2.259-11.976 3.988-11.976 3.988s6.692 16.732 3.346 33.695c0 0 4.384.991 10.637 1.982.508-1.798.992-3.78 1.454-5.831 2.054-9.265 12.368-5.14 25.497-9.265 13.13-4.126 17.952-22.056 17.952-22.056l-46.91-2.513z" fill="#304D60"/><path d="M104.615 114.855s-5.422 46.302-4.384 56.074c1.039 9.772 4.384 25.468 10.568 31.898 6.184 6.43 30.92 9.265 42.25 0 11.33-9.265 16.475-12.354 19.06-33.189 2.584-20.834 0-49.137 0-49.137l-10.315-18.783-26.259-2.582-20.098 4.633-10.568 7.467-.254 3.619z" fill="#E7F1FB"/><path d="M141.489 145.945s-2.7-3.503 1.084-12.192c3.785-8.689 16.545.715 16.545.715s.992 10.601-1.269 11.477c-2.261.876-16.36 0-16.36 0zm-9.461-5.093l-.669-.185c.023-.046 1.384-5.416-5.607-12.86-3.046-3.25-3.623-8.412-1.662-14.912 1.477-4.863 3.877-8.827 3.9-8.85l.6.369c-.092.161-9.299 15.488-2.331 22.932 7.292 7.744 5.838 13.275 5.769 13.506z" fill="#BFCFDD"/><path d="M135.489 133.039s2.123 16.548 1.731 19.06c-.392 2.512-2.861 4.817-.854 5.6 2.008.784 5.861 2.928 6.83 2.72.969-.207-1.73-4.563-3.853-6.43l4.984-4.978s-7.961-2.628-4.592-9.749c1.615-3.435 5.607-8.113-4.246-6.223zm15.622-32.336s-9.576 27.127-2.931 27.588c6.646.461 13.107 4.747 13.107 4.747s-3-8.711 0-13.736c3-5.024 0-20.143 0-20.143l-10.176 1.544z" fill="#fff"/><path d="M131.405 168.901l1.546-6.407s-1.292-.531-2.307-4.126c-1.016-3.595 2.561-3.088 2.561-3.088s1.292-10.81 1.038-15.995c-.254-5.186-11.329-9.749-11.329-9.749-5.677-9.519 2.053-26.251 2.053-26.251l-1.592-1.36-8.122 1.867-10.568 7.467-.254 3.595s-5.4 46.303-4.384 56.075c1.015 9.772 4.384 25.467 10.568 31.898 3.069 3.18 10.706 5.485 18.99 5.877-6.345-18.346 3.854-22.333 3.854-22.333l3.253-6.407-15.875-5.394 10.568-5.669z" fill="#BFCFDD"/><path d="M120.214 142.949s5.446-6.66 6.3-10.233c0 0 8.307.185 7.73 9.035l-4.038 13.575s-11.515 3.111-3.692 7.467c0 0-8.192-1.982 1.038-8.228l-1.038-7.536-6.3-4.08z" fill="#9FB1BF"/><path d="M115.437 158.99s-9.137-4.748-10.729.83c-1.592 5.577 3.461 7.859 6.138 10.671 2.676 2.812 5.814-3.434 8.03-4.679 2.215-1.244-5.792-2.051-3.439-6.822z" fill="#E7F1FB"/><path d="M122.267 111.005a52.885 52.885 0 012.7-7.72l-1.592-1.36-8.122 1.867-10.568 7.467-.254 3.595s-5.4 46.303-4.384 56.075a99.946 99.946 0 003.438 17.47c1.546-.392 2.538-1.613 1.73-4.494-2.076-7.606-1.8-13.23-1.892-21.458-.092-8.228 6.807-5.923 6.807-5.923l-.992-9.08s-.992-1.038-3.738-6.73c-2.746-5.693 3.83-24.638 3.83-24.638a78.604 78.604 0 0013.037-5.071z" fill="#9FB1BF"/><path d="M100.116 160.235s.623 18.53 1.915 24.614c1.293 6.085 3.231 18.53 15.899 21.872 12.668 3.342 24.528 4.195 35.95-3.618 11.422-7.813 16.66-16.203 18.021-28.21 1.362-12.008 1.8-25.468 1.8-25.468s-2.053 16.203-4.292 19.291c-2.238 3.088-13.221 4.978-13.129 11.823.092 6.845-3.946 13.207-8.422 13.806-4.477.599-7.73-4.541-15.368-3.181-7.638 1.36-8.238 4.679-11.422 4.656-3.184-.023-9.53-14.428-10.984-16.917-1.453-2.489-7.291-2.489-8.145-5.577-.854-3.089-1.823-13.091-1.823-13.091z" fill="#9FB1BF"/><path d="M174.393 150.186l-1.592 15.143s-1.5-15.35-1.108-19.199c.393-3.849-.046-12.353-.046-12.353s-4.015-14.866-4.407-18.53c-.392-3.665-6.369-10.418-10.038-10.994-3.669-.576-22.405-4.84-31.289 2.12-8.884 6.961-17.006 5.601-17.006 5.601s-5.607 10.025-5.999 18.53c-.393 8.504-2.123 33.004-2.123 33.004s-1.938-8.873-1.73-10.994c0 0-4.062-3.664-3.485-10.233.577-6.568-.046-15.626-.046-15.626s-1.8-9.265 0-10.417c0 0 2.192-7.514 4.892-8.874 0 0 8.699-12.146 12.552-12.93 0 0 9.853-9.449 16.222-8.688 0 0 1.938-5.97 9.068.783 0 0 4.061-6.937 15.252-1.36 0 0 10.246-.391 16.614 10.81 6.369 11.201 14.676 15.626 13.337 21.019l-1.361 5.393s1.154 15.235-1.361 22.587c.046 0-4.523-.807-6.346 5.208z" fill="#1573FF"/><path d="M119.729 178.074s7.984 1.106 12.737 1.498c4.754.392 11.722-3.642 15.714-2.996l-10.314-3.319-10.684.76-7.453 4.057z" fill="#9FB1BF"/><path d="M119.729 178.074s5.999-3.503 8.491-2.996c2.493.507 9.276-1.291 12.022-.507 2.746.783 9.092 2.304 9.092 2.304s-9.092-4.125-11.168-5.139c-2.077-1.014-3.692 2.235-9.092 0-2.053-.876-7.199 6.153-9.345 6.338z" fill="#304D60"/><path d="M119.891 178.581l-.347-.6c.254-.138 6.138-3.572 8.746-3.042 1.107.231 3.138-.023 5.284-.299 2.561-.323 5.215-.646 6.761-.208 2.699.761 9.022 2.305 9.091 2.305l-.161.668c-.07-.023-6.392-1.544-9.115-2.328-1.407-.391-3.992-.069-6.484.231-2.215.277-4.292.53-5.515.277-1.938-.369-6.622 2.051-8.26 2.996z" fill="#040F1F"/><path d="M129.121 181.3s8.63-2.259 9.668-.876c1.038 1.383-1.661 7.306-4.246 7.445-2.584.138-7.084-3.872-5.422-6.569zm-13.522-7.168s2.4 2.582 4.546 1.637c2.146-.945 6.092-5.67 10.13-4.978 4.038.691 3.945-1.683 8.076-.07 4.13 1.614 8.422 4.656 10.983 4.08 2.562-.576 2.239-2.973 0-4.656-2.238-1.682-7.96-6.13-12.091-5.623-4.13.507-6.276 1.452-8.837-.438-2.562-1.89-12.807 10.048-12.807 10.048z" fill="#9FB1BF"/><path d="M110.13 147.789s9.437 3.181 16.406-.783c0 .023-5.769-9.749-16.406.783zm30.574-1.844s10.984 4.403 18.021 0c0 0-6.276-9.288-18.021 0z" fill="#fff"/><path d="M121.899 145.945a3.555 3.555 0 00-1.662-3.019c-1.384-.138-2.976.092-4.799.945-1.131 1.59-.762 3.826.83 4.955.046.023.093.069.139.092 1.315.093 2.607.07 3.922-.046a3.502 3.502 0 001.57-2.927zm31.381-1.083a3.55 3.55 0 00-1.638-2.996c-1.5-.138-3 .023-4.431.484a3.56 3.56 0 000 5.025c.116.115.208.207.346.299a26.14 26.14 0 004.038.231 3.642 3.642 0 001.685-3.043z" fill="#1573FF"/><path d="M110.384 148.019l-.53-.461c.046-.046 1.176-1.336 2.976-2.627 2.4-1.706 4.8-2.558 6.992-2.443 2.653.115 4.984 1.567 6.968 4.333l-.553.415c-1.846-2.559-4.015-3.918-6.438-4.034-4.915-.23-9.369 4.771-9.415 4.817zm30.551-1.797l-.462-.507c.208-.185 5.377-4.771 11.145-4.264 2.838.253 5.33 1.705 7.384 4.31l-.554.438c-1.938-2.467-4.269-3.826-6.899-4.057-5.469-.484-10.568 4.033-10.614 4.08z" fill="#040F1F"/><path d="M108.4 146.683l-.485-.484c4.292-4.217 8.445-6.153 12.345-5.715 4.869.53 7.499 4.494 7.592 4.678l-.577.369c-.023-.046-2.562-3.872-7.107-4.356-3.692-.415-7.638 1.429-11.768 5.508zm31.474-2.582l-.485-.484c.208-.207 5.146-4.978 11.122-4.678 3.184.161 6.046 1.751 8.492 4.702l-.531.437c-2.331-2.811-5.03-4.309-8.007-4.448-5.676-.299-10.545 4.425-10.591 4.471z" fill="#9FB1BF"/><path d="M138.374 130.48s.692 4.287 1.892 4.725c1.2.438 6.184-4.632 14.86-1.291 8.676 3.342 9.091 2.651 8.583 1.729-.507-.922-5.33-5.739-8.837-6.868-3.507-1.129-14.099-.346-16.498 1.705zm-11.838 2.236s-1.038 4.979-3 4.794c-1.961-.184-8.837-2.489-11.168-1.106-2.33 1.383-5.838 4.079-6.968 4.356-1.131.277 3.184-5.9 6.691-8.044 3.508-2.143 12.622-1.475 14.445 0zm-8.607 74.19c12.692 3.342 24.529 4.194 35.951-3.619 9.484-6.476 14.698-13.39 16.983-22.425-8.653 1.083-4.084 18.369-12.138 15.165-9.299-3.687-17.375 12.63-23.213 7.191-5.838-5.439-17.006.807-23.674-3.065-6.669-3.872-3.185-10.418-6.623-12.1-3.438-1.683-5.122-27.634-5.122-27.634s.623 18.53 1.915 24.615c1.292 6.084 3.23 18.53 15.921 21.872zm7.338-45.519s6.276-2.788 5.676 0c-.599 2.789-1.476-.737-5.676 0zm16.222 1.083s-4.038-4.217-4.984-1.889c-.946 2.327 2.492.276 4.984 1.889zm-23.167-15.003a1.522 1.522 0 10.001-3.045 1.522 1.522 0 00-.001 3.045zm31.381-1.083a1.522 1.522 0 10.001-3.045 1.522 1.522 0 00-.001 3.045zM117.145 98.93c-.738-.554-1.269-.9-1.269-.9.392.323.831.623 1.269.9z" fill="#040F1F"/><path d="M138.282 86.506c-7.153-6.753-9.069-.784-9.069-.784s-2.953 7.537 6.831 11.132c0 0-15.622-.783-15.391-8.343a43.75 43.75 0 00-2.031 1.337c-1.223 3.48-.715 7.836 7.384 10.348 0 0-4.476 1.383-8.814-1.29 2.03 1.543 5.491 4.632 2.699 6.037-3.784 1.936-13.568 0-13.568 0s5.654 2.697 3.854 3.734c-1.8 1.037-9.715-1.36-9.715-1.36a18.868 18.868 0 008.492 4.633s8.122 1.36 17.006-5.601c8.884-6.96 27.62-2.696 31.289-2.12-.046.023-27.02-9.426-18.967-17.723zm-42.758 29.708c-1.8 1.153 0 10.418 0 10.418v.023c.3.391.67.76 1.038 1.06 4.038 3.342 2.262 7.098-.761 6.13.023 1.268.023 2.628 0 3.965 1.292 2.327 2.653 4.402 3.507 4.655a22.787 22.787 0 01-3.646-1.29c-.023.368-.046.737-.092 1.083-.6 6.568 3.461 10.233 3.461 10.233-.184 2.12 1.731 10.994 1.731 10.994s1.731-24.5 2.123-33.004c.069-1.153.208-2.305.415-3.458-1.892-2.235-5.838-7.19-7.66-11.339-.07.346-.116.53-.116.53z" fill="#040F1F"/><path d="M142.066 156.293s6.299 7.652-2.908 6.177c.023 0 11.837 3.941 2.908-6.177z" fill="#9FB1BF"/><path d="M166.363 150.762s-6.899 5.67-12.876 5.532c-5.976-.139-9.276 1.59-1.938 7.859s14.306 2.673 16.222-4.01c1.915-6.684-1.408-9.381-1.408-9.381z" fill="#fff"/><path d="M88.925 233.641c-.023-.069-.692-2.005-.854-4.471-.23-3.319.554-6.039 2.285-7.836 1.592-1.683 3.507-4.564 5.33-7.352 2.953-4.495 5.745-8.735 7.961-9.335 1.361-.368 2.03-1.336 2.607-2.166.415-.576.785-1.153 1.361-1.429-3.715-4.725-4.938-10.648-5.745-14.589a63.107 63.107 0 00-.208-.945 66.92 66.92 0 01-.854-6.407l-.092-.507c-.023-.185-.069-.392-.092-.576a4.131 4.131 0 01-2.515-.369c-2.539-1.13-1.339-5.117-.877-6.615.046-.161.092-.323.115-.392-.023-.115-.115-.691-.254-1.406-1.292-6.983-2.93-16.525-2.215-18.76.139-.461.392-.738.739-.876.23-.092.461-.092.738-.046a13.607 13.607 0 01-1.177-5.739c0-.392.023-.807.07-1.221.022-.346.045-.715.092-1.084.069-1.014.115-2.143.138-3.342.023-1.267.023-2.604 0-3.964a144.007 144.007 0 00-.277-7.144v-.047c0-.046-.023-.161-.046-.322 0-.046-.023-.092-.023-.138-.046-.254-.115-.623-.162-1.038l-.069-.438a50.79 50.79 0 01-.277-2.166l-.046-.415c-.023-.161-.023-.346-.046-.507-.023-.299-.046-.599-.07-.876-.022-.092-.022-.184-.022-.276-.023-.231-.023-.461-.023-.669 0-.553 0-1.06.046-1.498v-.207c.115-1.06.369-1.752.784-2.097v-.07c0-.023.023-.046.023-.069v-.046l.047-.092v-.023l.023-.069c.692-2.167 2.538-7.283 4.822-8.528.785-1.083 8.884-12.238 12.714-12.998l.139.668c-3.692.737-12.253 12.676-12.345 12.791l-.046.069-.069.046c-2.123 1.061-3.992 6.385-4.546 8.09v.023l-.023.069c0 .023-.023.046-.023.046l-.023.093c0 .023-.023.046-.023.046 0 .069-.023.138-.047.161v.138l-.161.116c-.162.115-.462.46-.577 1.659 0 .046 0 .092-.023.138v.069c-.023.415-.046.899-.046 1.429 0 .208 0 .415.023.623v.299l.07.876c.022.161.022.346.045.507l.046.415c.07.668.162 1.36.277 2.143l.07.438c.069.415.138.784.184 1.037v.069c0 .024.023.047.023.07.046.207.07.345.07.345v.093c.069 1.06.23 3.848.276 7.167.023 1.36.023 2.697 0 3.987a70.347 70.347 0 01-.138 3.365c-.023.369-.046.738-.092 1.084-.047.391-.047.783-.047 1.175a12.698 12.698 0 001.477 6.223l.554 1.06-1.038-.576c-.439-.254-.808-.346-1.016-.254-.138.046-.253.208-.346.461-.761 2.328 1.5 14.451 2.239 18.415.23 1.314.276 1.452.276 1.544 0 .093-.023.208-.138.577-.415 1.336-1.5 4.909.507 5.785.762.368 1.616.46 2.423.23l.37-.092.069.369c.046.322.115.622.161.945l.093.53c.161 2.12.438 4.24.83 6.338.07.299.139.622.208.945.831 4.01 2.077 10.048 5.93 14.681l.392.461-.6.092c-.599.092-.969.645-1.43 1.314-.623.899-1.385 2.005-3 2.443-1.961.553-4.822 4.863-7.568 9.057-1.846 2.812-3.762 5.716-5.4 7.445-3.853 4.033-1.292 11.523-1.269 11.616l-.67.207z" fill="#040F1F"/><path d="M145.042 160.419s6.184 6.154 7.338 12.86l-7.338-12.86zm-21.759-.668s-4.384 1.844-7.684 14.359l7.684-14.359z" fill="#9FB1BF"/></svg>