<svg width="643" height="643" fill="none" xmlns="http://www.w3.org/2000/svg"><path fill-rule="evenodd" clip-rule="evenodd" d="M321.5 643C499.06 643 643 499.06 643 321.5S499.06 0 321.5 0 0 143.94 0 321.5 143.94 643 321.5 643zm178.612-500.112H142.888v357.224h357.224V142.888z" fill="#D9EAFA"/><path d="M104.793 302.169h-27.47v27.47h27.47v-27.47z" fill="#E7F1FB"/><path d="M525.998 537.19h-27.469v27.47h27.469v-27.47zm27.47-27.47h-27.47v27.47h27.47v-27.47z" fill="#fff"/><path d="M525.998 94.619h-27.469v27.47h27.469v-27.47zm-393.735 235.02h-27.47v27.47h27.47v-27.47zm0 148.541H76.305v27.47h55.958v-27.47zM643 449.693h-91.566v57.992H643v-57.992zM104.793 242.142H0v60.027h104.793v-60.027z" fill="#E7F1FB"/></svg>