<svg width="252" height="218" fill="none" xmlns="http://www.w3.org/2000/svg"><path d="M252 123.382h-94.595V218H252v-94.618zm-74.919-20.438h-20.432v20.438h20.432v-20.438zm-59.027-20.437H97.622v20.437h20.432V82.507zm39.351 115.055h-20.432V218h20.432v-20.438zm-136.973 0H0V218h20.432v-20.438zM252 0h-20.432v20.438H252V0zM138.486 62.07h-20.432v20.437h20.432V62.069zm18.919 61.312H74.162v41.632h83.243v-41.632z" fill="#fff"/><path d="M115.784 158.201H74.162V218h41.622v-59.799zm-41.622 19.681h-53.73v20.437h53.73v-20.437zM252 20.438h-41.622v104.458H252V20.437z" fill="#fff"/></svg>